<svg viewBox="0 0 127 43" fill="none" xmlns="http://www.w3.org/2000/svg"><path fill-rule="evenodd" clip-rule="evenodd" d="M123.619 2.58964H2.5986V40.3244H123.619V2.58964ZM0 0V42.9141H126.218V0H0Z" fill="#ffffff"/><path d="M14.8486 14.7979V28.116H17.957V24.4433L20.4326 22.3287L25.6629 28.116H29.6833L22.6848 20.3996L29.2366 14.7979H24.9556L17.957 20.8819V14.7979H14.8486Z" fill="#ffffff"/><path d="M32.9935 28.116H36.3067L37.7213 25.2595H45.0549L46.4695 28.116H49.8384L43.1935 14.7979H39.6757L32.9935 28.116ZM43.8078 22.6997H38.987L41.4067 17.8399L43.8078 22.6997Z" fill="#ffffff"/><path d="M61.9118 23.386L64.9458 28.116H68.5009L65.1691 23.0707C66.137 22.7554 66.8815 22.2545 67.4027 21.5682C67.9239 20.8819 68.1845 20.0658 68.1845 19.0827C68.1845 17.7286 67.7191 16.6898 66.8071 15.9293C65.8764 15.1688 64.6107 14.7979 62.9914 14.7979H54.4852V28.116H57.5936V23.386H61.9118ZM57.5936 17.4133H62.8239C63.5498 17.4133 64.1268 17.5616 64.5363 17.8584C64.9272 18.1738 65.1319 18.6004 65.1319 19.1383C65.1319 19.6762 64.9272 20.1029 64.5363 20.3996C64.1268 20.715 63.5498 20.8634 62.8239 20.8634H57.5936V17.4133Z" fill="#ffffff"/><path d="M87.9968 17.8584V28.116H91.0122V14.7979H86.3961L82.2454 24.332L78.076 14.7979H73.3855V28.116H76.4195V17.8584L80.9424 28.116H83.4552L87.9968 17.8584Z" fill="#ffffff"/><path d="M95.6384 28.116H98.9515L100.366 25.2595H107.7L109.114 28.116H112.483L105.838 14.7979H102.321L95.6384 28.116ZM106.453 22.6997H101.632L104.052 17.8399L106.453 22.6997Z" fill="#ffffff"/></svg>
